/* XPM */
static char* cube_xpm[] = {
"24 24 32 1",
"  c #000000",
"! c None",
"# c #080808",
"$ c #787878",
"% c #484848",
"& c #d0d0d0",
"' c #202020",
"( c #b0b0b0",
") c #686868",
"* c #e8e8e8",
"+ c #101010",
", c #989898",
"- c #606060",
". c #e0e0e0",
"/ c #404040",
"0 c #c8c8c8",
"1 c #707070",
"2 c #f0f0f0",
"3 c #888888",
"4 c #585858",
"5 c #d8d8d8",
"6 c #383838",
"7 c #c0c0c0",
"8 c #181818",
"9 c #a8a8a8",
": c #808080",
"; c #505050",
"< c #303030",
"= c #b8b8b8",
"> c #a0a0a0",
"? c #909090",
"@ c #282828",
"!!!!!!!!!!0//&!!!!!!!!!!",
"!!!!!!!!.4    -.!!!!!!!!",
"!!!!!!*1#  ))  #$2!!!!!!",
"!!!!23+  45!!5;  +?!!!!!",
"!!!>'  /0!!!!!!76  '9!!!",
"!=<  @(!!!!!!!!!!9'  67!",
"!   -!!!!!!!!!!!!!!)   !",
"!    ;&!!!!!!!!!!.-    !",
"!  $#  -.!!!!!!*1#  -  !",
"!  !.-  #$2!!23+  ;&!  !",
"!  !!!&%  +?,8  /0!!!  !",
"!  !!!!!76    <=!!!!!  !",
"!  !!!!!!!9  9!!!!!!!  !",
"!  !!!!!!!!  !!!!!!!!  !",
"!  !!!!!!!!  !!!!!!!!  !",
"!  !!!!!!!!  !!!!!!!!  !",
"!  !!!!!!!!  !!!!!!!!  !",
"!  <=!!!!!!  !!!!!!=<  !",
"!,8  /0!!!!  !!!!0/  8?!",
"!!2:+  ;5!!  !!5;  +:2!!",
"!!!!*1#  -.  .-  #1*!!!!",
"!!!!!!.-  #  #  -.!!!!!!",
"!!!!!!!!&;    ;&!!!!!!!!",
"!!!!!!!!!!0//0!!!!!!!!!!"};
