/* XPM */
static char* database_xpm[] = {
"24 24 31 1",
"  c #000000",
"! c #505050",
"# c #080808",
"$ c None",
"% c #a0a0a0",
"& c #303030",
"' c #686868",
"( c #181818",
") c #d0d0d0",
"* c #484848",
"+ c #606060",
", c #101010",
"- c #c0c0c0",
". c #404040",
"/ c #909090",
"0 c #282828",
"1 c #e8e8e8",
"2 c #585858",
"3 c #b8b8b8",
"4 c #383838",
"5 c #808080",
"6 c #202020",
"7 c #e0e0e0",
"8 c #c8c8c8",
"9 c #989898",
": c #f0f0f0",
"; c #b0b0b0",
"< c #787878",
"= c #888888",
"> c #a8a8a8",
"? c #707070",
"$$$$$79+4(#  #(4+97$$$$$",
"$$$8*              *8$$$",
"$$3                  3$$",
"$$2                  2$$",
"$$3#                #3$$",
"$$$)*              *)$$$",
"$$8$$1%'.6,  ,6.'%1$$8$$",
"$$!0/7$$$$$$$$$$$$7/0!$$",
"$$!   62<9>;;>9<26   !$$",
"$$+                  +$$",
"$$7&                &7$$",
"$$$$%.            .%$$$$",
"$$/)$$:-/?+22+?/-:$$)/$$",
"$$! 4=)$$$$$$$$$$)=4 !$$",
"$$!    #0.2++2.0#    !$$",
"$$=                  =$$",
"$$$5#              #5$$$",
"$$:$19*,        ,*91$:$$",
"$$2<7$$$183;;381$$$7<2$$",
"$$!  4<>):$$$$:)><4  !$$",
"$$!        ##        !$$",
"$$3                  3$$",
"$$$8*              *8$$$",
"$$$$$79+4(#  #(4+97$$$$$"};
