/* XPM */
static char *folder_xpm[] = {
/* columns rows colors chars-per-pixel */
"24 24 3 1",
"  c #000000",
". c #010101",
"X c None",
/* pixels */
"XXXXXXXXXXXXXXXXXXXXXXXX",
"XXXXXXXXXXXXXXXXXXXXXXXX",
"......XXXXXXXXXXXXXXXXXX",
".......XXXXXXXXXXXXXXXXX",
"........XXXXXXXXXXXXXXXX",
"........................",
"........................",
"........................",
"........................",
"........................",
"........................",
"........................",
"........................",
"........................",
"........................",
"........................",
"........................",
"........................",
"........................",
"........................",
"........................",
"........................",
"XXXXXXXXXXXXXXXXXXXXXXXX",
"XXXXXXXXXXXXXXXXXXXXXXXX"
};
