/* XPM */
static char *full_folder_xpm[] = {
/* columns rows colors chars-per-pixel */
"24 24 3 1",
"  c #000000",
". c #010101",
"X c None",
/* pixels */
"XXXXXXXXXXXXXXXXXXXXXXXX",
"XXXXXXXXXXXXXXXXXXXXXXXX",
"XX......XXXXXXXXXXXXXXXX",
"XX.......XXXXXXXXXXXXXXX",
"XX....................XX",
"XX....................XX",
"XX.....XXX...XXX......XX",
"XX.....XXXX..XXXX.....XX",
"XX....XXXXXX..XXXX....XX",
"XXXXXXXXXXXXXXXXXXXXXXXX",
"XXXXXXXXXXXXXXXXXXXXXXXX",
"........................",
"........................",
"........................",
".......................X",
"X......................X",
"X......................X",
"X......................X",
"X......................X",
"X......................X",
"X.....................XX",
"XX....................XX",
"XXXXXXXXXXXXXXXXXXXXXXXX",
"XXXXXXXXXXXXXXXXXXXXXXXX"
};
